<?xml version="1.0" encoding="UTF-8"?><svg id="Layer_1" xmlns="http://www.w3.org/2000/svg" width="24" height="24" viewBox="0 0 24 24"><defs><style>.cls-1{fill:#231f20;stroke-width:0px;}</style></defs><path class="cls-1" d="m20.33,4.27c-1.55-.73-3.21-1.26-4.95-1.56-.21.39-.46.9-.63,1.32-1.85-.28-3.68-.28-5.49,0-.17-.41-.43-.93-.64-1.32-1.74.3-3.4.83-4.96,1.56C.53,9.01-.32,13.62.1,18.18c2.08,1.55,4.09,2.49,6.07,3.11.49-.67.92-1.39,1.3-2.14-.72-.27-1.4-.61-2.05-1,.17-.13.34-.26.5-.4,3.95,1.85,8.24,1.85,12.14,0,.16.14.33.27.5.4-.65.39-1.34.73-2.05,1,.38.75.81,1.47,1.3,2.14,1.98-.62,4-1.56,6.08-3.11.5-5.28-.85-9.85-3.57-13.91h0Zm-12.32,11.11c-1.19,0-2.16-1.11-2.16-2.45s.95-2.46,2.16-2.46,2.18,1.11,2.16,2.46c0,1.35-.95,2.45-2.16,2.45Zm7.97,0c-1.19,0-2.16-1.11-2.16-2.45s.95-2.46,2.16-2.46,2.18,1.11,2.16,2.46c0,1.35-.95,2.45-2.16,2.45Z"/></svg>