<?xml version="1.0" encoding="UTF-8"?><svg id="Layer_1" xmlns="http://www.w3.org/2000/svg" width="24" height="23.41" viewBox="0 0 24 23.41"><defs><style>.cls-1{fill:#231f20;fill-rule:evenodd;stroke-width:0px;}</style></defs><path class="cls-1" d="m12,0C5.37,0,0,5.37,0,12c0,5.31,3.43,9.79,8.2,11.39.6.1.83-.26.83-.57,0-.28-.01-1.23-.01-2.23-3.02.55-3.8-.74-4.04-1.41-.13-.34-.72-1.41-1.23-1.7-.42-.22-1.02-.78-.01-.79.94-.02,1.62.87,1.85,1.23,1.08,1.82,2.81,1.31,3.5.99.1-.78.42-1.31.76-1.61-2.67-.3-5.46-1.33-5.46-5.92,0-1.3.46-2.39,1.23-3.23-.12-.3-.54-1.53.12-3.18,0,0,1-.32,3.3,1.23.96-.27,1.98-.41,3-.41s2.04.14,3,.41c2.29-1.56,3.3-1.23,3.3-1.23.66,1.65.24,2.88.12,3.18.77.84,1.23,1.9,1.23,3.23,0,4.6-2.8,5.62-5.47,5.92.43.38.81,1.1.81,2.22,0,1.6-.02,2.89-.02,3.3,0,.32.22.69.83.57,4.74-1.59,8.17-6.09,8.17-11.39C24,5.37,18.63,0,12,0Z"/></svg>