<?xml version="1.0" encoding="UTF-8"?><svg id="Layer_1" xmlns="http://www.w3.org/2000/svg" width="24" height="24" viewBox="0 0 24 24"><defs><style>.cls-1{fill:#231f20;stroke-width:0px;}</style></defs><path class="cls-1" d="m23,7v12c0,1.33-2,1.33-2,0V7c0-1.33,2-1.33,2,0Z"/><path class="cls-1" d="m3,7v12c0,1.33-2,1.33-2,0V7c0-1.33,2-1.33,2,0Z"/><path class="cls-1" d="m21.88,20H2.12c-1.33,0-1.33-2,0-2h19.75c1.33,0,1.33,2,0,2Z"/><path class="cls-1" d="m22.09,9.67l-9.66,2.59c-1.29.35-1.81-1.59-.52-1.93l9.66-2.59c1.29-.35,1.81,1.59.52,1.93Z"/><path class="cls-1" d="m11.57,12.26L1.91,9.67c-1.29-.35-.77-2.28.52-1.93l9.66,2.59c1.29.35.77,2.28-.52,1.93Z"/><path class="cls-1" d="m22,8H2.25c-1.33,0-1.33-2,0-2h19.75c1.33,0,1.33,2,0,2Z"/></svg>