<?xml version="1.0" encoding="UTF-8"?><svg id="Layer_1" xmlns="http://www.w3.org/2000/svg" width="24" height="24" viewBox="0 0 24 24"><defs><style>.cls-1{fill:#231f20;stroke-width:0px;}</style></defs><path class="cls-1" d="m21.54,7.1c.02.21.02.42.02.64,0,6.51-4.95,14.01-14.01,14.01h0c-2.68,0-5.3-.77-7.55-2.21.39.05.78.07,1.17.07,2.22,0,4.37-.74,6.12-2.11-2.11-.04-3.95-1.41-4.6-3.42.74.14,1.5.11,2.22-.08-2.3-.46-3.95-2.48-3.95-4.83v-.06c.68.38,1.45.59,2.24.62C1.03,8.28.36,5.4,1.67,3.15c2.5,3.08,6.19,4.95,10.15,5.14-.4-1.71.15-3.5,1.42-4.7,1.98-1.86,5.1-1.77,6.97.21,1.1-.22,2.16-.62,3.13-1.2-.37,1.14-1.14,2.11-2.16,2.72.98-.12,1.93-.38,2.83-.78-.66.99-1.49,1.85-2.46,2.55h0Z"/></svg>